<svg id="line" height="512" viewBox="0 0 64 64" width="512" xmlns="http://www.w3.org/2000/svg"><path d="m60 12h-26a3 3 0 0 0 -3 3v42a5 5 0 0 1 -5 5h32a5 5 0 0 0 5-5v-42a3 3 0 0 0 -3-3zm-1 41.68h-24a1 1 0 0 1 0-2h24a1 1 0 0 1 0 2zm-18.41-9.18a1 1 0 0 1 -.36 1.37 1 1 0 0 1 -1.37-.37l-4.73-8.16a1 1 0 0 1 0-1l4.73-7.84a1 1 0 1 1 1.71 1l-4.42 7.33zm.8.13 6.36-16a1 1 0 0 1 1.3-.56 1 1 0 0 1 .56 1.3l-6.36 16a1 1 0 0 1 -1.86-.74zm11-15.11a1 1 0 1 1 1.71-1l4.73 7.84a1 1 0 0 1 0 1l-4.69 8.14a1 1 0 0 1 -1.37.37 1 1 0 0 1 -.36-1.37l4.43-7.65zm6.61-7.52h-24a1 1 0 0 1 0-2h24a1 1 0 0 1 0 2z" fill="#c4a2fc"/><path d="m26 46h3a0 0 0 0 1 0 0v11a3 3 0 0 1 -3 3 3 3 0 0 1 -3-3v-8a3 3 0 0 1 3-3z" fill="#c4a2fc"/><g fill="#151a6a"><path d="m18 48a7 7 0 0 1 -7-7v-3.69a8.94 8.94 0 0 0 -2.64-6.31l-4.95-5 4.95-4.95a8.94 8.94 0 0 0 2.64-6.36v-3.69a7 7 0 0 1 7-7 1 1 0 0 0 0-2 9 9 0 0 0 -9 9v3.69a7 7 0 0 1 -2 5l-5.71 5.6a1 1 0 0 0 0 1.42l5.71 5.65a7 7 0 0 1 2.05 5v3.64a9 9 0 0 0 9 9 1 1 0 0 0 0-2z"/><path d="m50.71 25.29-5.66-5.65a7 7 0 0 1 -2-5v-3.64a9 9 0 0 0 -9-9 1 1 0 0 0 0 2 7 7 0 0 1 7 7v3.69a8.94 8.94 0 0 0 2.64 6.36l5 4.95-5 4.95a8.94 8.94 0 0 0 -2.69 6.36v3.69a7 7 0 0 1 -7 7 1 1 0 0 0 0 2 9 9 0 0 0 9-9v-3.69a7 7 0 0 1 2-5l5.66-5.65a1 1 0 0 0 .05-1.37z"/><path d="m34.86 40h3.14a1 1 0 0 0 0-2h-3.14a4 4 0 0 0 -7.72 0h-13.14a1 1 0 0 0 0 2h13.14a4 4 0 0 0 7.72 0zm-3.86 1a2 2 0 1 1 2-2 2 2 0 0 1 -2 2z"/><path d="m17.14 12h-3.14a1 1 0 0 0 0 2h3.14a4 4 0 0 0 7.72 0h13.14a1 1 0 0 0 0-2h-13.14a4 4 0 0 0 -7.72 0zm3.86-1a2 2 0 1 1 -2 2 2 2 0 0 1 2-2z"/><path d="m38 25h-8.14a4 4 0 0 0 -7.72 0h-8.14a1 1 0 0 0 0 2h8.14a4 4 0 0 0 7.72 0h8.14a1 1 0 0 0 0-2zm-12 3a2 2 0 1 1 2-2 2 2 0 0 1 -2 2z"/></g></svg>